<?xml version="1.0" encoding="UTF-8"?>
<svg version="1.1" xmlns="http://www.w3.org/2000/svg" width="217" height="248">
<path d="M0 0 C3.58782295 0.13700517 7.15256374 0.12327217 10.74243164 0.08984375 C26.92171005 0.20821627 26.92171005 0.20821627 32.4519043 3.96459961 C34.56888103 6.82897722 35.93287823 9.64126825 37.39282227 12.88671875 C38.8808501 15.25015024 40.50246766 17.51480611 42.11157227 19.796875 C42.9096021 20.97989484 43.70387431 22.16545806 44.49438477 23.35351562 C46.11847723 25.78998686 47.7493667 28.22165983 49.38500977 30.65039062 C50.16931269 31.82391896 50.95318401 32.99773588 51.73657227 34.171875 C52.79134766 35.74787476 52.79134766 35.74787476 53.86743164 37.35571289 C55.39282227 39.88671875 55.39282227 39.88671875 55.39282227 41.88671875 C38.23282227 41.88671875 21.07282227 41.88671875 3.39282227 41.88671875 C2.73282227 43.53671875 2.07282227 45.18671875 1.39282227 46.88671875 C0.72734658 48.05354293 0.02465616 49.20006881 -0.71655273 50.3203125 C-1.13412842 50.95759277 -1.5517041 51.59487305 -1.98193359 52.25146484 C-2.66267944 53.27747803 -2.66267944 53.27747803 -3.35717773 54.32421875 C-4.35411665 55.84580075 -5.35016656 57.36796549 -6.34545898 58.890625 C-6.87478027 59.69902832 -7.40410156 60.50743164 -7.94946289 61.34033203 C-10.84802701 65.79276558 -13.69570248 70.27745372 -16.54467773 74.76171875 C-17.13216797 75.68549316 -17.7196582 76.60926758 -18.32495117 77.56103516 C-21.20981927 82.10062304 -24.08746695 86.64464929 -26.95483398 91.1953125 C-27.48665283 92.03916504 -28.01847168 92.88301758 -28.56640625 93.75244141 C-29.55375945 95.32037893 -30.54002531 96.88900202 -31.52490234 98.45849609 C-32.19984741 99.53091553 -32.19984741 99.53091553 -32.88842773 100.625 C-33.32413086 101.32061035 -33.75983398 102.0162207 -34.20874023 102.73291016 C-35.20965974 104.27447997 -36.25114839 105.79000521 -37.31811523 107.28662109 C-37.87756836 108.07633301 -38.43702148 108.86604492 -39.01342773 109.6796875 C-39.53227539 110.39020264 -40.05112305 111.10071777 -40.58569336 111.83276367 C-41.80333563 113.79037338 -41.80333563 113.79037338 -41.33061218 115.75509644 C-40.51992836 118.14380177 -39.44845072 119.94465201 -38.05371094 122.04663086 C-37.51837234 122.8594603 -36.98303375 123.67228973 -36.43147278 124.50975037 C-35.84621323 125.38567337 -35.26095367 126.26159637 -34.65795898 127.1640625 C-34.04889206 128.08522354 -33.43982513 129.00638458 -32.81230164 129.95545959 C-30.85341188 132.91527674 -28.88665564 135.86977211 -26.91967773 138.82421875 C-25.64507409 140.74770564 -24.37098045 142.67153059 -23.09741211 144.59570312 C-14.63012921 157.37892288 -6.11808062 170.13251412 2.39282227 182.88671875 C8.94662569 174.09398053 15.03050186 165.0290792 21.08032227 155.88671875 C23.02785819 152.9507034 24.97742964 150.01604567 26.92797852 147.08203125 C27.40197083 146.36886749 27.87596313 145.65570374 28.36431885 144.92092896 C32.68630224 138.42740279 37.0776234 131.98266994 41.53613281 125.58203125 C44.39117947 121.45901827 46.96448432 117.27596808 49.39282227 112.88671875 C48.73282227 112.55671875 48.07282227 112.22671875 47.39282227 111.88671875 C46.99724121 112.95865479 46.60166016 114.03059082 46.1940918 115.13500977 C44.05193208 119.86648249 41.72930304 123.88300959 37.39282227 126.88671875 C28.41191874 129.50818754 18.48997374 128.28648927 9.26782227 127.82421875 C6.66384709 127.74891723 4.05966358 127.6804866 1.45532227 127.61914062 C-4.90341285 127.45442998 -11.25432736 127.20404945 -17.60717773 126.88671875 C-16.33032318 123.60743546 -15.02346006 120.77563971 -13.02514648 117.875 C-12.51177734 117.12621582 -11.9984082 116.37743164 -11.46948242 115.60595703 C-10.91679688 114.8117334 -10.36411133 114.01750977 -9.79467773 113.19921875 C-9.22007813 112.36632324 -8.64547852 111.53342773 -8.0534668 110.67529297 C-3.5302786 104.14658665 1.09586656 97.69454887 5.7722168 91.27490234 C9.86050714 85.65804497 13.80746441 79.95883683 17.68579102 74.1953125 C19.39282227 71.88671875 19.39282227 71.88671875 21.39282227 70.88671875 C22.93893175 70.78670652 24.48924894 70.74839516 26.03857422 70.74145508 C27.00330154 70.73507523 27.96802887 70.72869537 28.96199036 70.72212219 C30.0077977 70.72100937 31.05360504 70.71989655 32.13110352 70.71875 C33.20402145 70.7154216 34.27693939 70.7120932 35.38237 70.70866394 C37.65627615 70.70359372 39.93018976 70.70125564 42.20410156 70.70141602 C45.68054528 70.6992343 49.15666932 70.68109256 52.63305664 70.66210938 C54.84073785 70.65917452 57.04842056 70.65719034 59.25610352 70.65625 C60.29583817 70.64906448 61.33557281 70.64187897 62.40681458 70.63447571 C63.86809029 70.63909065 63.86809029 70.63909065 65.35888672 70.64379883 C66.63890312 70.6416613 66.63890312 70.6416613 67.94477844 70.63948059 C71.59023137 71.00765009 74.45836863 71.9300954 77.03930664 74.57226562 C77.75570312 75.57870117 77.75570312 75.57870117 78.48657227 76.60546875 C79.03611572 77.3648877 79.58565918 78.12430664 80.15185547 78.90673828 C81.01363403 80.13432861 81.01363403 80.13432861 81.89282227 81.38671875 C82.49505615 82.22444824 83.09729004 83.06217773 83.71777344 83.92529297 C84.97939377 85.68206272 86.23606513 87.44239599 87.48803711 89.20605469 C89.96166746 92.68727249 92.46361426 96.1475994 94.96704102 99.60742188 C96.11143061 101.19027984 97.2534236 102.77487373 98.39282227 104.36132812 C98.90458008 105.07353516 99.41633789 105.78574219 99.94360352 106.51953125 C100.39388916 107.14746582 100.8441748 107.77540039 101.30810547 108.42236328 C102.31835388 109.86135282 102.31835388 109.86135282 103.39282227 110.88671875 C103.94613801 115.41534169 102.5888189 117.67872115 100.05297852 121.3671875 C99.32941162 122.43380615 98.60584473 123.5004248 97.86035156 124.59936523 C97.27439713 125.44590164 97.27439713 125.44590164 96.67660522 126.30953979 C95.42808148 128.11358002 94.19354949 129.92649484 92.96240234 131.74243164 C91.68357239 133.62851303 90.40401979 135.51404635 89.12034607 137.39683533 C85.19508719 143.15526641 81.37682737 148.98016571 77.58032227 154.82421875 C69.53774362 167.16358488 61.43639852 179.46400057 53.33032227 191.76171875 C52.38387344 193.19800125 52.38387344 193.19800125 51.41830444 194.66329956 C31.71069972 224.5688413 31.71069972 224.5688413 30.39282227 225.88671875 C22.64853507 226.72328325 14.77704797 226.71566593 6.99584961 226.89599609 C4.36058006 226.9726573 1.72603707 227.0816362 -0.90649414 227.22412109 C-22.0906064 228.34750077 -22.0906064 228.34750077 -27.79837036 224.35339355 C-31.44359985 220.4476166 -33.61445353 215.94002385 -35.66125488 211.04827881 C-36.98829601 208.0158126 -38.76467253 205.37126329 -40.61889648 202.63671875 C-41.8445843 200.72032537 -43.06984143 198.80365647 -44.29467773 196.88671875 C-44.96329834 195.84128906 -45.63191895 194.79585937 -46.32080078 193.71875 C-49.11777405 189.34547901 -51.91370326 184.97154087 -54.7097168 180.59765625 C-63.73573233 166.46447079 -63.73573233 166.46447079 -72.82177734 152.36987305 C-73.66919733 151.06244805 -74.51509974 149.754038 -75.359375 148.44458008 C-77.79995068 144.66106648 -80.26137949 140.89258715 -82.74560547 137.13754272 C-84.25107196 134.85655883 -85.74590115 132.56871077 -87.23925781 130.27978516 C-88.33942899 128.60129731 -89.45270013 126.93141947 -90.56616211 125.26171875 C-91.23454102 124.23433594 -91.90291992 123.20695312 -92.59155273 122.1484375 C-93.4998584 120.7711145 -93.4998584 120.7711145 -94.42651367 119.3659668 C-95.60717773 116.88671875 -95.60717773 116.88671875 -95.42358398 114.77075195 C-93.96658871 111.40842165 -91.88094836 108.42657192 -89.85717773 105.38671875 C-88.84929778 103.85160678 -87.84148815 102.31644865 -86.83374023 100.78125 C-86.30425781 99.97896973 -85.77477539 99.17668945 -85.22924805 98.35009766 C-82.54341868 94.27122674 -79.89012657 90.17128689 -77.23217773 86.07421875 C-76.13084369 84.3800598 -75.02927938 82.68605051 -73.92749023 80.9921875 C-70.65314671 75.95761996 -67.38003016 70.92225571 -64.10717773 65.88671875 C-60.83432531 60.85118179 -57.56120876 55.81581754 -54.28686523 50.78125 C-49.17803228 42.92527124 -44.07193765 35.0675721 -38.98217773 27.19921875 C-38.57940109 26.60440201 -38.17662445 26.00958527 -37.76164246 25.39674377 C-35.37989885 21.82770614 -33.30492314 18.35858674 -31.59667969 14.41772461 C-24.74160295 -0.23649118 -15.17944299 -0.61858816 0 0 Z " fill="#8E57DD" transform="translate(104.607177734375,10.11328125)"/>
<path d="M0 0 C0.96472733 -0.00637985 1.92945465 -0.0127597 2.92341614 -0.01933289 C3.96922348 -0.02044571 5.01503082 -0.02155853 6.0925293 -0.02270508 C7.16544724 -0.02603348 8.23836517 -0.02936188 9.34379578 -0.03279114 C11.61770193 -0.03786136 13.89161554 -0.04019943 16.16552734 -0.04003906 C19.64197106 -0.04222078 23.1180951 -0.06036252 26.59448242 -0.0793457 C28.80216363 -0.08228056 31.00984634 -0.08426474 33.2175293 -0.08520508 C34.25726395 -0.09239059 35.2969986 -0.09957611 36.36824036 -0.10697937 C37.34242416 -0.10390274 38.31660797 -0.10082611 39.3203125 -0.09765625 C40.17365677 -0.09908127 41.02700104 -0.10050629 41.90620422 -0.10197449 C45.55165715 0.26619501 48.41979441 1.18864032 51.00073242 3.83081055 C51.47833008 4.50176758 51.95592773 5.17272461 52.44799805 5.86401367 C52.9975415 6.62343262 53.54708496 7.38285156 54.11328125 8.1652832 C54.68780029 8.98367676 55.26231934 9.80207031 55.85424805 10.64526367 C56.45648193 11.48299316 57.05871582 12.32072266 57.67919922 13.18383789 C58.94081955 14.94060764 60.19749091 16.70094091 61.44946289 18.46459961 C63.92309324 21.94581741 66.42504004 25.40614432 68.9284668 28.8659668 C70.07285639 30.44882476 71.21484938 32.03341865 72.35424805 33.61987305 C72.86600586 34.33208008 73.37776367 35.04428711 73.9050293 35.77807617 C74.35531494 36.40601074 74.80560059 37.03394531 75.26953125 37.6809082 C76.27977966 39.11989774 76.27977966 39.11989774 77.35424805 40.14526367 C77.90756379 44.67388661 76.55024468 46.93726607 74.0144043 50.62573242 C73.2908374 51.69235107 72.56727051 52.75896973 71.82177734 53.85791016 C71.23582291 54.70444656 71.23582291 54.70444656 70.63803101 55.56808472 C69.38950726 57.37212494 68.15497527 59.18503976 66.92382812 61.00097656 C65.64499817 62.88705795 64.36544558 64.77259127 63.08177185 66.65538025 C59.15651298 72.41381133 55.33825315 78.23871063 51.54174805 84.08276367 C43.4991694 96.4221298 35.3978243 108.72254549 27.29174805 121.02026367 C26.66078217 121.97778534 26.02981628 122.93530701 25.37973022 123.92184448 C5.6721255 153.82738622 5.6721255 153.82738622 4.35424805 155.14526367 C2.60496085 155.23891374 0.85188551 155.26270805 -0.89990234 155.25878906 C-2.02098892 155.25871353 -3.1420755 155.258638 -4.2971344 155.25856018 C-6.12678993 155.25081825 -6.12678993 155.25081825 -7.9934082 155.24291992 C-9.23497177 155.24150497 -10.47653534 155.24009003 -11.75572205 155.2386322 C-15.06180686 155.23396958 -18.36782342 155.22497864 -21.67388916 155.21392822 C-25.04536345 155.20371194 -28.41684478 155.19913412 -31.78833008 155.1940918 C-38.4074897 155.18303763 -45.02661688 155.16628104 -51.64575195 155.14526367 C-50.98575195 154.81526367 -50.32575195 154.48526367 -49.64575195 154.14526367 C-48.92415771 152.50163234 -48.25223775 150.83475981 -47.64575195 149.14526367 C-46.98575195 149.14526367 -46.32575195 149.14526367 -45.64575195 149.14526367 C-45.46508179 148.26197388 -45.46508179 148.26197388 -45.28076172 147.36083984 C-44.62884877 145.08628775 -43.82194076 143.63484732 -42.4855957 141.69604492 C-42.02991211 141.02565186 -41.57422852 140.35525879 -41.10473633 139.66455078 C-40.60264648 138.93631104 -40.10055664 138.20807129 -39.58325195 137.45776367 C-33.80687336 128.95315975 -28.25215129 120.32191377 -22.78222656 111.6171875 C-18.51280712 104.88236757 -14.00818738 98.36216101 -9.3861084 91.86647034 C-4.01345141 84.29682756 1.1547143 76.59599681 6.29370117 68.86645508 C7.8781072 66.48439282 9.46753907 64.10573702 11.05737305 61.72729492 C12.08371135 60.18712797 13.10976395 58.64677058 14.13549805 57.10620117 C14.60217896 56.40820404 15.06885986 55.71020691 15.54968262 54.99105835 C18.33207549 50.79760207 20.90353382 46.54125019 23.35424805 42.14526367 C22.69424805 41.81526367 22.03424805 41.48526367 21.35424805 41.14526367 C20.95866699 42.21719971 20.56308594 43.28913574 20.15551758 44.39355469 C18.01335786 49.12502741 15.69072882 53.14155451 11.35424805 56.14526367 C2.37334452 58.76673246 -7.54860048 57.54503419 -16.77075195 57.08276367 C-19.37472713 57.00746215 -21.97891063 56.93903153 -24.58325195 56.87768555 C-30.94198707 56.7129749 -37.29290158 56.46259438 -43.64575195 56.14526367 C-42.3688974 52.86598038 -41.06203428 50.03418463 -39.0637207 47.13354492 C-38.55035156 46.38476074 -38.03698242 45.63597656 -37.50805664 44.86450195 C-36.95537109 44.07027832 -36.40268555 43.27605469 -35.83325195 42.45776367 C-35.25865234 41.62486816 -34.68405273 40.79197266 -34.09204102 39.93383789 C-29.56885281 33.40513157 -24.94270766 26.95309379 -20.26635742 20.53344727 C-16.17806708 14.91658989 -12.23110981 9.21738175 -8.3527832 3.45385742 C-5.79524667 -0.00496201 -4.10936816 0.0184076 0 0 Z " fill="#9353DC" transform="translate(130.645751953125,80.854736328125)"/>
<path d="M0 0 C7.4006225 -0.27973772 14.79987627 -0.47186629 22.20458984 -0.60424805 C24.7210585 -0.65944654 27.23717622 -0.73442737 29.75244141 -0.82983398 C50.27360545 -1.58852471 50.27360545 -1.58852471 55.96289062 1.72631836 C57.69479438 4.0555987 58.88603657 6.32787882 60.02685547 8.9894104 C62.14237907 13.36024086 65.11828421 17.27092577 67.84375 21.27734375 C69.10676284 23.18948811 70.36581284 25.1042553 71.62109375 27.02148438 C72.25901855 27.99432373 72.89694336 28.96716309 73.55419922 29.96948242 C74.19631348 30.94892822 74.83842773 31.92837402 75.5 32.9375 C77.42781733 35.87276515 79.35638097 38.80753703 81.28564453 41.74185181 C82.52037023 43.62171846 83.75315899 45.50285895 84.98388672 47.38534546 C87.51961971 51.25942589 90.06155022 55.12127058 92.72265625 58.91064453 C93.46386719 59.9726709 94.20507812 61.03469727 94.96875 62.12890625 C95.59201172 62.99717041 96.21527344 63.86543457 96.85742188 64.76000977 C98 67 98 67 97.76269531 69.17138672 C95.11804468 75.51211438 90.56000396 81.19862874 86.6796875 86.83984375 C86.09541992 87.68925537 85.51115234 88.53866699 84.90917969 89.41381836 C83.72901051 91.12448231 82.54482343 92.83238199 81.35644531 94.53735352 C80.80827148 95.32940186 80.26009766 96.1214502 79.6953125 96.9375 C79.20047363 97.64777344 78.70563477 98.35804688 78.19580078 99.08984375 C76.83911189 101.09040617 76.83911189 101.09040617 76 104 C74 106 74 106 72 107 C72 107.66 72 108.32 72 109 C71.01 109 70.02 109 69 109 C67.80834961 107.58569336 67.80834961 107.58569336 66.65234375 105.58984375 C66.21736572 104.85515869 65.7823877 104.12047363 65.33422852 103.36352539 C64.87330811 102.56293701 64.4123877 101.76234863 63.9375 100.9375 C62.94783479 99.26673253 61.95560597 97.59748119 60.9609375 95.9296875 C60.46303711 95.09276367 59.96513672 94.25583984 59.45214844 93.39355469 C57.42180418 90.04696843 55.26127037 86.79999982 53.0625 83.5625 C49.28942174 77.981206 45.64664252 72.32946871 42.0625 66.625 C38.32897113 60.68343835 34.5724391 54.75979828 30.75 48.875 C25.39454837 40.62829807 20.09266315 32.34775707 14.79785156 24.06201172 C11.86709199 19.47642625 8.93540806 14.89174723 5.9765625 10.32421875 C5.54875488 9.66317139 5.12094727 9.00212402 4.68017578 8.32104492 C3.59068694 6.63993254 2.49858644 4.96051349 1.40625 3.28125 C0 1 0 1 0 0 Z " fill="#7848C9" transform="translate(9,126)"/>
<path d="M0 0 C0.96472733 -0.00637985 1.92945465 -0.0127597 2.92341614 -0.01933289 C3.96922348 -0.02044571 5.01503082 -0.02155853 6.0925293 -0.02270508 C7.16544724 -0.02603348 8.23836517 -0.02936188 9.34379578 -0.03279114 C11.61770193 -0.03786136 13.89161554 -0.04019943 16.16552734 -0.04003906 C19.64197106 -0.04222078 23.1180951 -0.06036252 26.59448242 -0.0793457 C28.80216363 -0.08228056 31.00984634 -0.08426474 33.2175293 -0.08520508 C34.25726395 -0.09239059 35.2969986 -0.09957611 36.36824036 -0.10697937 C37.34242416 -0.10390274 38.31660797 -0.10082611 39.3203125 -0.09765625 C40.17365677 -0.09908127 41.02700104 -0.10050629 41.90620422 -0.10197449 C45.55165715 0.26619501 48.41979441 1.18864032 51.00073242 3.83081055 C51.47833008 4.50176758 51.95592773 5.17272461 52.44799805 5.86401367 C53.27231323 7.00277954 53.27231323 7.00277954 54.11328125 8.16455078 C54.68780029 8.98318604 55.26231934 9.80182129 55.85424805 10.64526367 C56.45648193 11.48516846 57.05871582 12.32507324 57.67919922 13.19042969 C58.940228 14.9498252 60.19691237 16.7123418 61.44946289 18.4777832 C63.31669118 21.09266865 65.21378044 23.68259362 67.1237793 26.26635742 C68.30483615 27.87177669 69.48582829 29.47724356 70.66674805 31.08276367 C71.22362305 31.83299805 71.78049805 32.58323242 72.35424805 33.35620117 C72.86600586 34.05874023 73.37776367 34.7612793 73.9050293 35.48510742 C74.35531494 36.09733154 74.80560059 36.70955566 75.26953125 37.34033203 C76.43055645 39.27223824 76.85416736 40.96169867 77.35424805 43.14526367 C69.86119465 43.19589047 62.3681852 43.2309663 54.875 43.25512695 C52.32485302 43.26519696 49.77471763 43.27885371 47.22460938 43.29614258 C43.56336615 43.32034679 39.90227531 43.33173672 36.2409668 43.34057617 C34.52522713 43.35606003 34.52522713 43.35606003 32.77482605 43.37185669 C31.71395279 43.37200775 30.65307953 43.37215881 29.56005859 43.37231445 C28.62518112 43.37675568 27.69030365 43.3811969 26.72709656 43.38577271 C24.35424805 43.14526367 24.35424805 43.14526367 21.35424805 41.14526367 C20.95866699 42.21719971 20.56308594 43.28913574 20.15551758 44.39355469 C18.01335786 49.12502741 15.69072882 53.14155451 11.35424805 56.14526367 C2.37334452 58.76673246 -7.54860048 57.54503419 -16.77075195 57.08276367 C-19.37472713 57.00746215 -21.97891063 56.93903153 -24.58325195 56.87768555 C-30.94198707 56.7129749 -37.29290158 56.46259438 -43.64575195 56.14526367 C-42.3688974 52.86598038 -41.06203428 50.03418463 -39.0637207 47.13354492 C-38.55035156 46.38476074 -38.03698242 45.63597656 -37.50805664 44.86450195 C-36.95537109 44.07027832 -36.40268555 43.27605469 -35.83325195 42.45776367 C-35.25865234 41.62486816 -34.68405273 40.79197266 -34.09204102 39.93383789 C-29.56885281 33.40513157 -24.94270766 26.95309379 -20.26635742 20.53344727 C-16.17806708 14.91658989 -12.23110981 9.21738175 -8.3527832 3.45385742 C-5.79524667 -0.00496201 -4.10936816 0.0184076 0 0 Z " fill="#7763DC" transform="translate(130.645751953125,80.854736328125)"/>
<path d="M0 0 C6.97331967 -0.27986278 13.94518462 -0.47191298 20.92285156 -0.60424805 C23.29384461 -0.65942882 25.66446562 -0.73439717 28.03417969 -0.82983398 C47.57281828 -1.59677887 47.57281828 -1.59677887 53.04492188 2.00317383 C55.16661168 4.89082333 56.53589195 7.7325217 58 11 C59.48655071 13.36456714 61.10872732 15.62854679 62.71875 17.91015625 C63.51682509 19.09314556 64.3110965 20.27870973 65.1015625 21.46679688 C66.72565497 23.90326811 68.35654443 26.33494108 69.9921875 28.76367188 C70.77649042 29.93720021 71.56036174 31.11101713 72.34375 32.28515625 C73.39852539 33.86115601 73.39852539 33.86115601 74.47460938 35.46899414 C76 38 76 38 76 40 C68.67477534 40.51044845 61.35415608 40.85851308 54.01513672 41.09863281 C51.52478893 41.19875054 49.03560404 41.33492279 46.54931641 41.50878906 C26.47815205 42.87636339 26.47815205 42.87636339 20.7454834 38.13555908 C16.83930995 33.38120154 14.34450288 28.0480255 12.01379395 22.38769531 C10.76538337 19.4474291 9.1793541 16.8422219 7.421875 14.1796875 C6.96425781 13.44105469 6.50664063 12.70242187 6.03515625 11.94140625 C5.13377762 10.49207708 4.22991605 9.04429057 3.32421875 7.59765625 C0 2.21881833 0 2.21881833 0 0 Z " fill="#5A46BC" transform="translate(84,12)"/>
</svg>
